<svg width="100" height="100" viewBox="0 0 100 100" fill="none" xmlns="http://www.w3.org/2000/svg">
<g clip-path="url(#clip0_2_187)">
<path fill-rule="evenodd" clip-rule="evenodd" d="M34.8455 3.41875C34.8455 1.53064 36.3761 0 38.2642 0H96.5812C98.4693 0 100 1.53064 100 3.41875V36.5299C100 37.3389 99.3441 37.9947 98.5351 37.9947C97.7261 37.9947 97.0703 37.3389 97.0703 36.5299V3.41875C97.0703 3.14866 96.8513 2.92969 96.5812 2.92969H38.2642C37.9941 2.92969 37.7751 3.14866 37.7751 3.41875V18.9084C37.7751 19.7174 37.1193 20.3732 36.3103 20.3732C35.5013 20.3732 34.8455 19.7174 34.8455 18.9084V3.41875ZM98.5349 41.5422C99.3439 41.5422 99.9998 42.198 99.9998 43.007V61.7357C99.9998 63.6239 98.4691 65.1545 96.581 65.1545H81.0914C80.2823 65.1545 79.6265 64.4987 79.6265 63.6896C79.6265 62.8806 80.2823 62.2248 81.0914 62.2248H96.581C96.8511 62.2248 97.0701 62.0058 97.0701 61.7357V43.007C97.0701 42.198 97.7259 41.5422 98.5349 41.5422ZM81.0914 73.0031C81.9004 73.0031 82.5562 73.659 82.5562 74.468V79.1795C82.5562 81.0676 81.0256 82.5982 79.1375 82.5982H63.6896C62.8806 82.5982 62.2248 81.9424 62.2248 81.1334C62.2248 80.3244 62.8806 79.6686 63.6896 79.6686H79.1375C79.4075 79.6686 79.6265 79.4496 79.6265 79.1795V74.468C79.6265 73.659 80.2823 73.0031 81.0914 73.0031Z" fill="white"/>
<path fill-rule="evenodd" clip-rule="evenodd" d="M17.402 20.8625C17.402 18.9744 18.9326 17.4437 20.8207 17.4437H54.4996C55.3086 17.4437 55.9644 18.0996 55.9644 18.9086C55.9644 19.7176 55.3086 20.3734 54.4996 20.3734H20.8207C20.5506 20.3734 20.3316 20.5924 20.3316 20.8625V34.8455H61.7355C63.6237 34.8455 65.1543 36.3761 65.1543 38.2642V96.5808C65.1543 96.5808 65.1543 96.5809 65.1543 96.581C65.1545 98.4694 63.6238 100 61.7357 100H3.41875C1.53064 100 0 98.4693 0 96.5812V38.2642C0 36.3761 1.53064 34.8455 3.41875 34.8455H17.402V20.8625ZM16.9034 37.7752L17.3835 38.2552C17.9555 38.8272 17.9555 39.7547 17.3835 40.3268C16.8114 40.8988 15.8839 40.8988 15.3119 40.3268L12.7602 37.7752H5.09016L5.57018 38.2552C6.14223 38.8272 6.14223 39.7547 5.57018 40.3268C4.99812 40.8988 4.07063 40.8988 3.49857 40.3268L2.92969 39.7579V47.5168L5.57018 50.1573C6.14223 50.7294 6.14223 51.6569 5.57018 52.2289C4.99812 52.801 4.07063 52.801 3.49857 52.2289L2.92969 51.6601V59.3301L5.57018 61.9706C6.14223 62.5427 6.14223 63.4702 5.57018 64.0422C4.99812 64.6143 4.07063 64.6143 3.49857 64.0422L2.92969 63.4733V71.1434L5.57018 73.7839C6.14223 74.356 6.14223 75.2834 5.57018 75.8555C4.99812 76.4276 4.07063 76.4276 3.49857 75.8555L2.92969 75.2866V82.9567L5.57018 85.5972C6.14223 86.1692 6.14223 87.0967 5.57017 87.6688C4.99812 88.2408 4.07063 88.2408 3.49857 87.6688L2.92969 87.0999V96.5812C2.92969 96.8513 3.14865 97.0703 3.41875 97.0703H12.9001L12.3312 96.5014C11.7591 95.9293 11.7591 95.0018 12.3312 94.4298C12.9033 93.8577 13.8307 93.8577 14.4028 94.4298L17.0433 97.0703H24.7134L24.1445 96.5014C23.5724 95.9293 23.5724 95.0018 24.1445 94.4298C24.7165 93.8577 25.644 93.8577 26.2161 94.4298L28.8566 97.0703H36.5266L35.9577 96.5014C35.3857 95.9293 35.3857 95.0018 35.9578 94.4298C36.5298 93.8577 37.4573 93.8577 38.0294 94.4298L40.6698 97.0703H48.3399L47.771 96.5014C47.199 95.9293 47.199 95.0018 47.771 94.4298C48.3431 93.8577 49.2706 93.8577 49.8426 94.4298L52.4831 97.0703H60.1532L59.5843 96.5014C59.0123 95.9293 59.0123 95.0018 59.5843 94.4298C60.1564 93.8577 61.0839 93.8577 61.6559 94.4298L62.2246 94.9985V87.3284L59.5843 84.6881C59.0123 84.1161 59.0123 83.1886 59.5843 82.6165C60.1564 82.0444 61.0839 82.0444 61.6559 82.6165L62.2246 83.1852V75.5151L59.5843 72.8748C59.0123 72.3028 59.0123 71.3753 59.5843 70.8032C60.1564 70.2312 61.0839 70.2312 61.6559 70.8032L62.2246 71.3719V63.7019L59.5843 61.0616C59.0123 60.4895 59.0123 59.562 59.5843 58.99C60.1564 58.4179 61.0839 58.4179 61.6559 58.99L62.2246 59.5586V51.8886L59.5843 49.2483C59.0123 48.6762 59.0123 47.7487 59.5843 47.1767C60.1564 46.6046 61.0839 46.6046 61.6559 47.1767L62.2246 47.7454V38.2642C62.2246 37.9941 62.0056 37.7752 61.7355 37.7752H52.3433L52.8233 38.2552C53.3954 38.8272 53.3954 39.7547 52.8233 40.3268C52.2512 40.8988 51.3237 40.8988 50.7517 40.3268L48.2001 37.7752H40.53L41.01 38.2552C41.5821 38.8272 41.5821 39.7547 41.01 40.3268C40.438 40.8988 39.5105 40.8988 38.9384 40.3268L36.3868 37.7752H28.7167L29.1967 38.2552C29.7688 38.8272 29.7688 39.7547 29.1967 40.3268C28.6247 40.8988 27.6972 40.8988 27.1251 40.3268L24.5735 37.7752H16.9034ZM59.5117 18.9086C59.5117 18.0996 60.1675 17.4437 60.9766 17.4437H79.1375C81.0256 17.4437 82.5562 18.9744 82.5562 20.8625V67.9908C82.5562 68.7998 81.9004 69.4556 81.0914 69.4556C80.2824 69.4556 79.6266 68.7998 79.6266 67.9908V20.8625C79.6266 20.5924 79.4076 20.3734 79.1375 20.3734H60.9766C60.1675 20.3734 59.5117 19.7176 59.5117 18.9086ZM11.4768 41.27C12.0489 41.8421 12.0489 42.7696 11.4768 43.3416L8.49615 46.3223C7.9241 46.8944 6.99661 46.8944 6.42455 46.3223C5.85249 45.7502 5.85249 44.8228 6.42455 44.2507L9.40521 41.27C9.97727 40.698 10.9048 40.698 11.4768 41.27ZM23.2901 41.27C23.8622 41.8421 23.8622 42.7696 23.2901 43.3416L20.3094 46.3223C19.7374 46.8944 18.8099 46.8944 18.2378 46.3223C17.6658 45.7502 17.6658 44.8228 18.2378 44.2507L21.2185 41.27C21.7906 40.698 22.718 40.698 23.2901 41.27ZM35.1034 41.27C35.6754 41.8421 35.6754 42.7696 35.1034 43.3416L32.1227 46.3223C31.5507 46.8944 30.6232 46.8944 30.0511 46.3223C29.4791 45.7502 29.4791 44.8228 30.0511 44.2507L33.0318 41.27C33.6038 40.698 34.5313 40.698 35.1034 41.27ZM46.9167 41.27C47.4887 41.8421 47.4887 42.7696 46.9167 43.3416L43.936 46.3223C43.3639 46.8944 42.4364 46.8944 41.8644 46.3223C41.2923 45.7502 41.2923 44.8228 41.8644 44.2507L44.8451 41.27C45.4171 40.698 46.3446 40.698 46.9167 41.27ZM58.7299 41.27C59.302 41.8421 59.302 42.7696 58.7299 43.3416L55.7493 46.3223C55.1772 46.8944 54.2497 46.8944 53.6777 46.3223C53.1056 45.7502 53.1056 44.8228 53.6777 44.2507L56.6583 41.27C57.2304 40.698 58.1579 40.698 58.7299 41.27ZM12.3312 49.2483C11.7591 48.6762 11.7591 47.7487 12.3312 47.1767C12.9032 46.6046 13.8307 46.6046 14.4028 47.1767L17.3835 50.1573C17.9555 50.7294 17.9555 51.6569 17.3835 52.2289C16.8114 52.801 15.8839 52.801 15.3119 52.2289L12.3312 49.2483ZM24.1445 49.2483C23.5724 48.6762 23.5724 47.7487 24.1445 47.1767C24.7165 46.6046 25.644 46.6046 26.2161 47.1767L29.1967 50.1573C29.7688 50.7294 29.7688 51.6569 29.1967 52.2289C28.6247 52.801 27.6972 52.801 27.1251 52.2289L24.1445 49.2483ZM35.9578 49.2483C35.3857 48.6762 35.3857 47.7487 35.9578 47.1767C36.5298 46.6046 37.4573 46.6046 38.0294 47.1767L41.01 50.1573C41.5821 50.7294 41.5821 51.6569 41.01 52.2289C40.438 52.801 39.5105 52.801 38.9384 52.2289L35.9578 49.2483ZM47.771 49.2483C47.199 48.6762 47.199 47.7487 47.771 47.1767C48.3431 46.6046 49.2706 46.6046 49.8426 47.1767L52.8233 50.1573C53.3954 50.7294 53.3954 51.6569 52.8233 52.2289C52.2512 52.801 51.3237 52.801 50.7517 52.2289L47.771 49.2483ZM11.4768 53.0833C12.0489 53.6554 12.0489 54.5829 11.4768 55.1549L8.49615 58.1356C7.9241 58.7076 6.99661 58.7076 6.42455 58.1356C5.85249 57.5635 5.85249 56.636 6.42455 56.064L9.40521 53.0833C9.97727 52.5113 10.9048 52.5113 11.4768 53.0833ZM23.2901 53.0833C23.8622 53.6554 23.8622 54.5829 23.2901 55.1549L20.3094 58.1356C19.7374 58.7076 18.8099 58.7076 18.2378 58.1356C17.6658 57.5635 17.6658 56.636 18.2378 56.064L21.2185 53.0833C21.7906 52.5113 22.718 52.5113 23.2901 53.0833ZM35.1034 53.0833C35.6754 53.6554 35.6754 54.5829 35.1034 55.1549L32.1227 58.1356C31.5507 58.7076 30.6232 58.7076 30.0511 58.1356C29.4791 57.5635 29.4791 56.636 30.0511 56.064L33.0318 53.0833C33.6038 52.5113 34.5313 52.5113 35.1034 53.0833ZM46.9167 53.0833C47.4887 53.6554 47.4887 54.5829 46.9167 55.1549L43.936 58.1356C43.3639 58.7076 42.4365 58.7076 41.8644 58.1356C41.2923 57.5635 41.2923 56.636 41.8644 56.064L44.8451 53.0833C45.4171 52.5113 46.3446 52.5113 46.9167 53.0833ZM58.7299 53.0833C59.302 53.6554 59.302 54.5829 58.7299 55.1549L55.7493 58.1356C55.1772 58.7076 54.2497 58.7076 53.6777 58.1356C53.1056 57.5635 53.1056 56.636 53.6777 56.064L56.6583 53.0833C57.2304 52.5113 58.1579 52.5113 58.7299 53.0833ZM12.3312 61.0616C11.7591 60.4895 11.7591 59.562 12.3312 58.99C12.9032 58.4179 13.8307 58.4179 14.4028 58.99L17.3835 61.9706C17.9555 62.5427 17.9555 63.4702 17.3835 64.0422C16.8114 64.6143 15.8839 64.6143 15.3119 64.0422L12.3312 61.0616ZM24.1445 61.0616C23.5724 60.4895 23.5724 59.562 24.1445 58.99C24.7165 58.4179 25.644 58.4179 26.2161 58.99L29.1967 61.9706C29.7688 62.5427 29.7688 63.4702 29.1967 64.0422C28.6247 64.6143 27.6972 64.6143 27.1251 64.0422L24.1445 61.0616ZM35.9578 61.0616C35.3857 60.4895 35.3857 59.562 35.9578 58.99C36.5298 58.4179 37.4573 58.4179 38.0294 58.99L41.01 61.9706C41.5821 62.5427 41.5821 63.4702 41.01 64.0422C40.438 64.6143 39.5105 64.6143 38.9384 64.0422L35.9578 61.0616ZM47.771 61.0616C47.199 60.4895 47.199 59.562 47.771 58.99C48.3431 58.4179 49.2706 58.4179 49.8426 58.99L52.8233 61.9706C53.3954 62.5427 53.3954 63.4702 52.8233 64.0422C52.2512 64.6143 51.3238 64.6143 50.7517 64.0422L47.771 61.0616ZM11.4768 64.8966C12.0489 65.4687 12.0489 66.3961 11.4768 66.9682L8.49615 69.9489C7.9241 70.5209 6.99661 70.5209 6.42455 69.9489C5.85249 69.3768 5.85249 68.4493 6.42455 67.8773L9.40521 64.8966C9.97727 64.3245 10.9048 64.3245 11.4768 64.8966ZM23.2901 64.8966C23.8622 65.4687 23.8622 66.3961 23.2901 66.9682L20.3094 69.9489C19.7374 70.5209 18.8099 70.5209 18.2378 69.9489C17.6658 69.3768 17.6658 68.4493 18.2378 67.8773L21.2185 64.8966C21.7906 64.3245 22.718 64.3245 23.2901 64.8966ZM35.1034 64.8966C35.6754 65.4687 35.6754 66.3961 35.1034 66.9682L32.1227 69.9489C31.5507 70.5209 30.6232 70.5209 30.0511 69.9489C29.4791 69.3768 29.4791 68.4493 30.0511 67.8773L33.0318 64.8966C33.6038 64.3245 34.5313 64.3245 35.1034 64.8966ZM46.9167 64.8966C47.4887 65.4687 47.4887 66.3961 46.9167 66.9682L43.936 69.9489C43.3639 70.5209 42.4364 70.5209 41.8644 69.9489C41.2923 69.3768 41.2923 68.4493 41.8644 67.8773L44.8451 64.8966C45.4171 64.3245 46.3446 64.3245 46.9167 64.8966ZM58.7299 64.8966C59.302 65.4687 59.302 66.3961 58.7299 66.9682L55.7493 69.9489C55.1772 70.5209 54.2497 70.5209 53.6777 69.9489C53.1056 69.3768 53.1056 68.4493 53.6777 67.8773L56.6583 64.8966C57.2304 64.3245 58.1579 64.3245 58.7299 64.8966ZM12.3312 72.8748C11.7591 72.3028 11.7591 71.3753 12.3312 70.8032C12.9032 70.2312 13.8307 70.2312 14.4028 70.8032L17.3835 73.7839C17.9555 74.356 17.9555 75.2834 17.3835 75.8555C16.8114 76.4276 15.8839 76.4276 15.3119 75.8555L12.3312 72.8748ZM24.1445 72.8748C23.5724 72.3028 23.5724 71.3753 24.1445 70.8032C24.7165 70.2312 25.644 70.2312 26.2161 70.8032L29.1967 73.7839C29.7688 74.356 29.7688 75.2834 29.1967 75.8555C28.6247 76.4276 27.6972 76.4276 27.1251 75.8555L24.1445 72.8748ZM35.9578 72.8748C35.3857 72.3028 35.3857 71.3753 35.9578 70.8032C36.5298 70.2312 37.4573 70.2312 38.0294 70.8032L41.01 73.7839C41.5821 74.356 41.5821 75.2834 41.01 75.8555C40.438 76.4276 39.5105 76.4276 38.9384 75.8555L35.9578 72.8748ZM47.771 72.8748C47.199 72.3028 47.199 71.3753 47.771 70.8032C48.3431 70.2312 49.2706 70.2312 49.8426 70.8032L52.8233 73.7839C53.3954 74.356 53.3954 75.2834 52.8233 75.8555C52.2512 76.4276 51.3238 76.4276 50.7517 75.8555L47.771 72.8748ZM11.4768 76.7099C12.0489 77.2819 12.0489 78.2094 11.4768 78.7815L8.49615 81.7621C7.92409 82.3342 6.99661 82.3342 6.42455 81.7621C5.85249 81.1901 5.85249 80.2626 6.42455 79.6905L9.40521 76.7099C9.97727 76.1378 10.9048 76.1378 11.4768 76.7099ZM23.2901 76.7099C23.8622 77.2819 23.8622 78.2094 23.2901 78.7815L20.3094 81.7621C19.7374 82.3342 18.8099 82.3342 18.2378 81.7621C17.6658 81.1901 17.6658 80.2626 18.2378 79.6905L21.2185 76.7099C21.7906 76.1378 22.718 76.1378 23.2901 76.7099ZM35.1034 76.7099C35.6754 77.2819 35.6754 78.2094 35.1034 78.7815L32.1227 81.7621C31.5507 82.3342 30.6232 82.3342 30.0511 81.7621C29.4791 81.1901 29.4791 80.2626 30.0511 79.6905L33.0318 76.7099C33.6038 76.1378 34.5313 76.1378 35.1034 76.7099ZM46.9167 76.7099C47.4887 77.2819 47.4887 78.2094 46.9167 78.7815L43.936 81.7621C43.3639 82.3342 42.4364 82.3342 41.8644 81.7621C41.2923 81.1901 41.2923 80.2626 41.8644 79.6905L44.8451 76.7099C45.4171 76.1378 46.3446 76.1378 46.9167 76.7099ZM58.7299 76.7099C59.302 77.2819 59.302 78.2094 58.7299 78.7815L55.7493 81.7621C55.1772 82.3342 54.2497 82.3342 53.6777 81.7621C53.1056 81.1901 53.1056 80.2626 53.6777 79.6905L56.6583 76.7099C57.2304 76.1378 58.1579 76.1378 58.7299 76.7099ZM12.3312 84.6881C11.7591 84.1161 11.7591 83.1886 12.3312 82.6165C12.9033 82.0444 13.8307 82.0444 14.4028 82.6165L17.3835 85.5972C17.9555 86.1692 17.9555 87.0967 17.3835 87.6688C16.8114 88.2408 15.8839 88.2408 15.3119 87.6688L12.3312 84.6881ZM24.1445 84.6881C23.5724 84.1161 23.5724 83.1886 24.1445 82.6165C24.7165 82.0444 25.644 82.0444 26.2161 82.6165L29.1967 85.5972C29.7688 86.1692 29.7688 87.0967 29.1967 87.6688C28.6247 88.2408 27.6972 88.2408 27.1251 87.6688L24.1445 84.6881ZM35.9577 84.6881C35.3857 84.1161 35.3857 83.1886 35.9578 82.6165C36.5298 82.0444 37.4573 82.0444 38.0294 82.6165L41.01 85.5972C41.5821 86.1692 41.5821 87.0967 41.01 87.6688C40.438 88.2408 39.5105 88.2408 38.9384 87.6688L35.9577 84.6881ZM47.771 84.6881C47.199 84.1161 47.199 83.1886 47.771 82.6165C48.3431 82.0444 49.2706 82.0444 49.8426 82.6165L52.8233 85.5972C53.3954 86.1692 53.3954 87.0967 52.8233 87.6688C52.2512 88.2408 51.3238 88.2408 50.7517 87.6688L47.771 84.6881ZM11.4768 88.5231C12.0489 89.0952 12.0489 90.0227 11.4768 90.5947L8.49615 93.5754C7.9241 94.1475 6.99661 94.1475 6.42455 93.5754C5.85249 93.0034 5.85249 92.0759 6.42455 91.5038L9.40521 88.5232C9.97727 87.9511 10.9048 87.9511 11.4768 88.5231ZM23.2901 88.5231C23.8622 89.0952 23.8622 90.0227 23.2901 90.5947L20.3094 93.5754C19.7374 94.1475 18.8099 94.1475 18.2378 93.5754C17.6658 93.0034 17.6658 92.0759 18.2378 91.5038L21.2185 88.5232C21.7905 87.9511 22.718 87.9511 23.2901 88.5231ZM35.1034 88.5231C35.6754 89.0952 35.6754 90.0227 35.1034 90.5947L32.1227 93.5754C31.5507 94.1475 30.6232 94.1475 30.0511 93.5754C29.4791 93.0034 29.4791 92.0759 30.0511 91.5038L33.0318 88.5232C33.6038 87.9511 34.5313 87.9511 35.1034 88.5231ZM46.9167 88.5231C47.4887 89.0952 47.4887 90.0227 46.9167 90.5947L43.936 93.5754C43.3639 94.1475 42.4365 94.1475 41.8644 93.5754C41.2923 93.0034 41.2923 92.0759 41.8644 91.5038L44.8451 88.5232C45.4171 87.9511 46.3446 87.9511 46.9167 88.5231ZM58.7299 88.5231C59.302 89.0952 59.302 90.0227 58.7299 90.5947L55.7493 93.5754C55.1772 94.1475 54.2497 94.1475 53.6777 93.5754C53.1056 93.0034 53.1056 92.0759 53.6777 91.5038L56.6583 88.5232C57.2304 87.9511 58.1579 87.9511 58.7299 88.5231Z" fill="white"/>
</g>
<defs>
<clipPath id="clip0_2_187">
<rect width="100" height="100" fill="white"/>
</clipPath>
</defs>
</svg>
