<svg width="94" height="94" viewBox="0 0 94 94" fill="none" xmlns="http://www.w3.org/2000/svg">
<path d="M51.6875 26.6875H54.8125V29.8125H51.6875V26.6875ZM61.0625 26.6875H64.1875V29.8125H61.0625V26.6875ZM70.4375 26.6875H73.5625V29.8125H70.4375V26.6875ZM47 31.375H50.125V34.5H47V31.375ZM56.375 31.375H59.5V34.5H56.375V31.375ZM65.75 31.375H68.875V34.5H65.75V31.375ZM75.125 31.375H78.25V34.5H75.125V31.375Z" fill="white"/>
<path d="M84.9532 66.7344L87.2657 47H89.1875C89.6019 47 89.9994 46.8354 90.2924 46.5424C90.5854 46.2494 90.75 45.8519 90.75 45.4375V39.1875C90.75 38.7731 90.5854 38.3757 90.2924 38.0827C89.9994 37.7896 89.6019 37.625 89.1875 37.625H86.9688C87.4931 36.4242 87.7071 35.1108 87.5909 33.8057C87.4747 32.5006 87.0321 31.2456 86.3038 30.1564C85.5756 29.0671 84.5851 28.1785 83.4234 27.5723C82.2618 26.9662 80.9663 26.6619 79.6563 26.6875C79.2961 24.9229 78.3372 23.3369 76.9421 22.198C75.5469 21.0591 73.8011 20.4372 72 20.4375C71.2811 20.4341 70.5655 20.5341 69.875 20.7344C69.2939 19.287 68.2929 18.0467 67.0008 17.1731C65.7087 16.2995 64.1847 15.8327 62.625 15.8327C61.0653 15.8327 59.5414 16.2995 58.2493 17.1731C56.9572 18.0467 55.9561 19.287 55.375 20.7344C54.6846 20.5341 53.9689 20.4341 53.25 20.4375C51.449 20.4372 49.7032 21.0591 48.308 22.198C46.9128 23.3369 45.954 24.9229 45.5938 26.6875C44.2837 26.6619 42.9883 26.9662 41.8267 27.5723C40.665 28.1785 39.6745 29.0671 38.9462 30.1564C38.218 31.2456 37.7754 32.5006 37.6592 33.8057C37.543 35.1108 37.7569 36.4242 38.2813 37.625H36.0625C35.6481 37.625 35.2507 37.7896 34.9577 38.0827C34.6647 38.3757 34.5 38.7731 34.5 39.1875V45.4375C34.5 45.8519 34.6647 46.2494 34.9577 46.5424C35.2507 46.8354 35.6481 47 36.0625 47H37.9844L40.1875 65.75H20.0938L19.0469 42.9063L21.5469 40.4063C21.6917 40.2603 21.8063 40.0871 21.8841 39.8968C21.9618 39.7064 22.0012 39.5025 22 39.2969V32.8282C22.0012 32.6225 21.9618 32.4187 21.8841 32.2283C21.8063 32.0379 21.6917 31.8648 21.5469 31.7188L17.3125 27.4844V18.1094L21.2032 14.1875H29.8125V17.3125H28.7813C28.3714 17.3143 27.9786 17.477 27.6875 17.7657L24.0157 21.4375C23.727 21.7286 23.5643 22.1214 23.5625 22.5313V27.7188C23.5643 28.1287 23.727 28.5215 24.0157 28.8125L27.6875 32.4844L29.8907 30.2657L26.6875 27.0625V23.1875L29.4375 20.4375H33.3125L36.0625 23.1875V27.0625L32.9375 30.2657L35.1407 32.4844L38.8125 28.8125C39.1012 28.5215 39.2639 28.1287 39.2657 27.7188V22.5313C39.2639 22.1214 39.1012 21.7286 38.8125 21.4375L35.1407 17.7657C34.8496 17.477 34.4568 17.3143 34.0469 17.3125H32.9375V14.1875H40.75C41.1644 14.1875 41.5619 14.0229 41.8549 13.7299C42.1479 13.4369 42.3125 13.0394 42.3125 12.625V6.37503C42.3125 5.96063 42.1479 5.5632 41.8549 5.27017C41.5619 4.97715 41.1644 4.81253 40.75 4.81253H21.2032L16.9688 0.578151C16.8228 0.433336 16.6496 0.318766 16.4593 0.241009C16.2689 0.163251 16.065 0.123837 15.8594 0.125026H9.39066C9.18503 0.123837 8.98118 0.163251 8.79081 0.241009C8.60044 0.318766 8.42729 0.433336 8.28129 0.578151L3.70316 5.15628C3.55835 5.30228 3.44378 5.47543 3.36602 5.6658C3.28827 5.85617 3.24885 6.06002 3.25004 6.26565V12.7344C3.24885 12.94 3.28827 13.1439 3.36602 13.3343C3.44378 13.5246 3.55835 13.6978 3.70316 13.8438L7.93754 18.0782V27.4532L3.70316 31.7188C3.55835 31.8648 3.44378 32.0379 3.36602 32.2283C3.28827 32.4187 3.24885 32.6225 3.25004 32.8282V39.2969C3.24885 39.5025 3.28827 39.7064 3.36602 39.8968C3.44378 40.0871 3.55835 40.2603 3.70316 40.4063L6.20316 42.9063L5.01567 69.1719C2.84655 71.0461 1.30205 73.5385 0.589085 76.3151C-0.123878 79.0917 0.0287629 82.0198 1.02655 84.7072C2.02435 87.3946 3.81962 89.7129 6.17185 91.3515C8.52407 92.99 11.3209 93.8705 14.1875 93.875H79.8125C83.0833 93.8685 86.2494 92.7221 88.7661 90.6331C91.2828 88.5441 92.9926 85.6432 93.6013 82.4296C94.2099 79.216 93.6794 75.8907 92.101 73.0261C90.5225 70.1614 87.9949 67.9366 84.9532 66.7344ZM40.75 34.5C40.75 33.2568 41.2439 32.0645 42.123 31.1855C43.0021 30.3064 44.1943 29.8125 45.4375 29.8125C45.8286 29.8213 46.2171 29.8791 46.5938 29.9844C46.8244 30.0498 47.0669 30.0612 47.3026 30.0179C47.5383 29.9745 47.7609 29.8775 47.9532 29.7344C48.1472 29.5889 48.3047 29.4001 48.4132 29.1832C48.5217 28.9662 48.5782 28.727 48.5782 28.4844C48.5819 28.4059 48.5767 28.3273 48.5625 28.25C48.5625 27.0068 49.0564 25.8145 49.9355 24.9355C50.8146 24.0564 52.0068 23.5625 53.25 23.5625C54.0943 23.5722 54.9202 23.8097 55.6407 24.25C55.8687 24.3731 56.1237 24.4375 56.3828 24.4375C56.642 24.4375 56.897 24.3731 57.125 24.25C57.3606 24.1332 57.5628 23.9588 57.713 23.743C57.8632 23.5273 57.9566 23.2771 57.9844 23.0157C58.1436 21.8983 58.7006 20.8759 59.5531 20.1363C60.4056 19.3966 61.4964 18.9894 62.625 18.9894C63.7537 18.9894 64.8444 19.3966 65.6969 20.1363C66.5494 20.8759 67.1064 21.8983 67.2657 23.0157C67.2935 23.2771 67.3868 23.5273 67.537 23.743C67.6873 23.9588 67.8895 24.1332 68.125 24.25C68.3531 24.3731 68.6081 24.4375 68.8672 24.4375C69.1263 24.4375 69.3814 24.3731 69.6094 24.25C70.3298 23.8097 71.1558 23.5722 72 23.5625C73.2432 23.5625 74.4355 24.0564 75.3146 24.9355C76.1937 25.8145 76.6875 27.0068 76.6875 28.25C76.6875 28.25 76.6875 28.4688 76.6875 28.5157C76.6875 28.7582 76.744 28.9975 76.8525 29.2144C76.961 29.4314 77.1185 29.6201 77.3125 29.7657C77.5048 29.9088 77.7274 30.0058 77.9631 30.0491C78.1988 30.0925 78.4413 30.081 78.6719 30.0156C79.0423 29.901 79.4254 29.8328 79.8125 29.8125C81.0557 29.8125 82.248 30.3064 83.1271 31.1855C84.0062 32.0645 84.5 33.2568 84.5 34.5C84.4889 35.6584 84.0491 36.7717 83.2657 37.625H41.9844C41.2009 36.7717 40.7612 35.6584 40.75 34.5ZM37.625 40.75H87.625V43.875H37.625V40.75ZM41.125 47H84.125L81.9063 65.9219C81.214 65.8091 80.5139 65.7516 79.8125 65.75H43.3282L41.125 47ZM11.0625 18.875H14.1875V26.6875H11.0625V18.875ZM39.1875 11.0625H22V7.93753H39.1875V11.0625ZM6.37504 6.90628L10.0313 3.25003H15.2188L18.875 6.90628V12.0938L15.2188 15.75H10.0313L6.37504 12.0938V6.90628ZM6.37504 33.4688L10.0313 29.8125H15.2188L18.875 33.4688V38.6563L15.2188 42.3125H10.0313L6.37504 38.6563V33.4688ZM9.21879 45.4375H16.0313L16.9532 65.75H14.1875C12.128 65.75 10.0943 66.2091 8.23442 67.0938L9.21879 45.4375ZM79.8125 90.75H14.1875C11.2867 90.75 8.50474 89.5977 6.45356 87.5465C4.40238 85.4953 3.25004 82.7133 3.25004 79.8125C3.25004 76.9117 4.40238 74.1297 6.45356 72.0785C8.50474 70.0274 11.2867 68.875 14.1875 68.875H79.8125C82.7133 68.875 85.4953 70.0274 87.5465 72.0785C89.5977 74.1297 90.75 76.9117 90.75 79.8125C90.75 82.7133 89.5977 85.4953 87.5465 87.5465C85.4953 89.5977 82.7133 90.75 79.8125 90.75Z" fill="white"/>
<path d="M79.8125 72H68.875V75.125H73.5625C72.5185 76.4645 71.9515 78.1142 71.9515 79.8125C71.9515 81.5108 72.5185 83.1605 73.5625 84.5H53.25C54.294 83.1605 54.861 81.5108 54.861 79.8125C54.861 78.1142 54.294 76.4645 53.25 75.125H65.75V72H14.1875C12.1155 72 10.1284 72.8231 8.66323 74.2882C7.1981 75.7534 6.375 77.7405 6.375 79.8125C6.375 81.8845 7.1981 83.8716 8.66323 85.3368C10.1284 86.8019 12.1155 87.625 14.1875 87.625H25.125V84.5H20.4375C21.4815 83.1605 22.0485 81.5108 22.0485 79.8125C22.0485 78.1142 21.4815 76.4645 20.4375 75.125H40.75C39.706 76.4645 39.139 78.1142 39.139 79.8125C39.139 81.5108 39.706 83.1605 40.75 84.5H28.25V87.625H79.8125C81.8845 87.625 83.8716 86.8019 85.3368 85.3368C86.8019 83.8716 87.625 81.8845 87.625 79.8125C87.625 77.7405 86.8019 75.7534 85.3368 74.2882C83.8716 72.8231 81.8845 72 79.8125 72ZM18.875 79.8125C18.875 80.7396 18.6001 81.6459 18.085 82.4167C17.5699 83.1876 16.8379 83.7884 15.9813 84.1432C15.1248 84.498 14.1823 84.5908 13.273 84.4099C12.3637 84.2291 11.5285 83.7826 10.8729 83.1271C10.2174 82.4715 9.77094 81.6363 9.59007 80.727C9.4092 79.8177 9.50203 78.8752 9.85681 78.0187C10.2116 77.1621 10.8124 76.4301 11.5833 75.915C12.3541 75.3999 13.2604 75.125 14.1875 75.125C15.4307 75.125 16.623 75.6189 17.5021 76.4979C18.3811 77.377 18.875 78.5693 18.875 79.8125ZM42.3125 79.8125C42.3125 78.8854 42.5874 77.9791 43.1025 77.2083C43.6176 76.4374 44.3496 75.8366 45.2062 75.4818C46.0627 75.127 47.0052 75.0342 47.9145 75.2151C48.8238 75.3959 49.659 75.8424 50.3146 76.4979C50.9701 77.1535 51.4166 77.9887 51.5974 78.898C51.7783 79.8073 51.6855 80.7498 51.3307 81.6063C50.9759 82.4629 50.3751 83.1949 49.6042 83.71C48.8334 84.2251 47.9271 84.5 47 84.5C45.7568 84.5 44.5645 84.0061 43.6854 83.1271C42.8064 82.248 42.3125 81.0557 42.3125 79.8125ZM79.8125 84.5C78.8854 84.5 77.9791 84.2251 77.2083 83.71C76.4374 83.1949 75.8366 82.4629 75.4818 81.6063C75.127 80.7498 75.0342 79.8073 75.2151 78.898C75.3959 77.9887 75.8424 77.1535 76.4979 76.4979C77.1535 75.8424 77.9887 75.3959 78.898 75.2151C79.8073 75.0342 80.7498 75.127 81.6063 75.4818C82.4629 75.8366 83.1949 76.4374 83.71 77.2083C84.2251 77.9791 84.5 78.8854 84.5 79.8125C84.5 81.0557 84.0061 82.248 83.1271 83.1271C82.248 84.0061 81.0557 84.5 79.8125 84.5ZM17.3125 9.5C17.3125 8.5729 17.0376 7.66662 16.5225 6.89577C16.0074 6.12491 15.2754 5.5241 14.4188 5.16932C13.5623 4.81453 12.6198 4.7217 11.7105 4.90257C10.8012 5.08344 9.966 5.52988 9.31044 6.18544C8.65488 6.841 8.20844 7.67623 8.02757 8.58552C7.8467 9.4948 7.93953 10.4373 8.29431 11.2938C8.6491 12.1504 9.24991 12.8824 10.0208 13.3975C10.7916 13.9126 11.6979 14.1875 12.625 14.1875C13.8682 14.1875 15.0605 13.6936 15.9396 12.8146C16.8186 11.9355 17.3125 10.7432 17.3125 9.5ZM11.0625 9.5C11.0625 9.19097 11.1541 8.88888 11.3258 8.63192C11.4975 8.37497 11.7415 8.1747 12.0271 8.05644C12.3126 7.93818 12.6267 7.90724 12.9298 7.96752C13.2329 8.02781 13.5113 8.17663 13.7299 8.39515C13.9484 8.61367 14.0972 8.89208 14.1575 9.19517C14.2178 9.49827 14.1868 9.81244 14.0686 10.0979C13.9503 10.3835 13.75 10.6275 13.4931 10.7992C13.2361 10.9709 12.934 11.0625 12.625 11.0625C12.2106 11.0625 11.8132 10.8979 11.5201 10.6049C11.2271 10.3118 11.0625 9.9144 11.0625 9.5ZM17.3125 36.0625C17.3125 35.1354 17.0376 34.2291 16.5225 33.4583C16.0074 32.6874 15.2754 32.0866 14.4188 31.7318C13.5623 31.377 12.6198 31.2842 11.7105 31.4651C10.8012 31.6459 9.966 32.0924 9.31044 32.7479C8.65488 33.4035 8.20844 34.2387 8.02757 35.148C7.8467 36.0573 7.93953 36.9998 8.29431 37.8563C8.6491 38.7129 9.24991 39.445 10.0208 39.96C10.7916 40.4751 11.6979 40.75 12.625 40.75C13.8682 40.75 15.0605 40.2561 15.9396 39.3771C16.8186 38.498 17.3125 37.3057 17.3125 36.0625ZM11.0625 36.0625C11.0625 35.7535 11.1541 35.4514 11.3258 35.1944C11.4975 34.9375 11.7415 34.7372 12.0271 34.6189C12.3126 34.5007 12.6267 34.4697 12.9298 34.53C13.2329 34.5903 13.5113 34.7391 13.7299 34.9576C13.9484 35.1762 14.0972 35.4546 14.1575 35.7577C14.2178 36.0608 14.1868 36.3749 14.0686 36.6604C13.9503 36.946 13.75 37.19 13.4931 37.3617C13.2361 37.5334 12.934 37.625 12.625 37.625C12.2106 37.625 11.8132 37.4604 11.5201 37.1674C11.2271 36.8743 11.0625 36.4769 11.0625 36.0625Z" fill="white"/>
<path d="M12.625 78.25H15.75V81.375H12.625V78.25ZM45.4375 78.25H48.5625V81.375H45.4375V78.25ZM78.25 78.25H81.375V81.375H78.25V78.25Z" fill="white"/>
</svg>
