<svg width="235" height="65" viewBox="0 0 235 65" fill="none" xmlns="http://www.w3.org/2000/svg">
<g clip-path="url(#clip0_1_841)">
<path fill-rule="evenodd" clip-rule="evenodd" d="M66.7538 65.0377H3.45508V0H66.7525V65.0377H66.7538ZM69.3164 30.2728H80.5436V45.3372C80.5436 47.7962 81.1788 48.6918 82.4492 48.6918C83.6513 48.6918 84.5791 47.7962 84.5791 45.3372V30.2728H95.4796V45.6504C95.4796 55.3948 90.3128 59.8404 82.4492 59.8404C74.5856 59.8404 69.3164 55.1229 69.3164 45.6504V30.2728ZM98.3629 58.8433V30.2728H109.795V58.8433H98.3629ZM104.161 14.9792C107.675 14.9792 110.445 18.1284 110.445 21.6684C110.445 25.2084 107.676 28.3575 104.161 28.3575C100.646 28.3575 97.8776 25.2084 97.8776 21.6684C97.8776 18.1284 100.646 14.9792 104.161 14.9792ZM112.732 58.8433V30.2728H123.804V34.6834C125.628 31.7936 127.971 29.8695 131.426 29.8695C136.588 29.8695 139.036 34.9628 139.036 40.1199V58.8433H127.795V44.7385C127.795 43.4006 127.73 41.0494 125.866 41.0494C123.98 41.0494 123.909 43.3217 123.909 44.7385V58.8433H112.732ZM144.146 58.8433V41.4678H141.317V30.6461H144.146V20.8341H155.58V30.6461H159.188V41.4678H155.58V58.8433H144.146ZM177.138 41.112C176.978 39.4974 175.938 37.3365 174.125 37.3365C172.541 37.3365 171.475 39.3984 171.729 41.112H177.138ZM187.788 49.7077C187.193 52.8419 184.868 55.7781 182.337 57.4053C179.951 58.9398 177.275 59.9056 174.046 59.9056C170.269 59.9056 167.023 58.4162 164.312 55.4361C161.601 52.456 160.245 48.8396 160.245 44.5906C160.245 36.8305 165.714 29.7367 173.708 29.7367C178.972 29.7367 183.494 32.1819 185.995 36.9006C187.231 39.2343 187.848 41.7985 187.848 44.5906V46.903H171.567C171.505 48.7332 171.695 51.8911 173.956 51.8911C175.504 51.8911 176.124 51.2648 176.613 49.709L187.788 49.7077ZM190.139 58.8433V20.8329H201.571V58.8433H190.139ZM220.408 58.8433V55.2958C218.551 58.1706 215.309 59.8417 213.365 59.8417C211.681 59.8417 210.112 59.2492 208.653 58.0604C205.283 55.3184 203.524 49.595 203.524 45.3385C203.524 39.4347 205.707 29.9885 213.312 29.9885C216.572 29.9885 218.873 31.4466 220.627 34.0872V30.2741H231.545V58.8446L220.408 58.8433ZM217.529 40.76C215.468 40.76 214.391 43.0374 214.391 44.7948C214.391 46.5222 215.503 48.8271 217.529 48.8271C219.635 48.8271 220.67 46.5861 220.67 44.7948C220.67 42.9472 219.706 40.76 217.529 40.76Z" fill="white"/>
<path fill-rule="evenodd" clip-rule="evenodd" d="M24.7415 30.5435H43.2301L49.9988 37.9166C50.5767 36.228 50.8925 34.4179 50.8925 32.5314C50.8925 23.5574 43.7677 16.2382 35.0337 16.2382C26.2996 16.2382 19.1761 23.5574 19.1761 32.5314C19.1761 41.5054 26.2996 48.8259 35.0337 48.8259C36.9843 48.8259 38.8521 48.4589 40.5808 47.7937L24.7415 30.5435ZM59.112 47.8401L74.9026 65.0377H56.414L49.5197 57.5293C45.1438 60.2256 40.1361 61.6472 35.0337 61.6418C19.4297 61.6418 6.7041 48.5654 6.7041 32.5327C6.7041 16.5012 19.4297 3.4248 35.0337 3.4248C50.6377 3.4248 63.3645 16.5 63.3645 32.5327C63.369 37.9435 61.8957 43.247 59.112 47.8401Z" fill="#1840A7"/>
</g>
<defs>
<clipPath id="clip0_1_841">
<rect width="235" height="65" fill="white"/>
</clipPath>
</defs>
</svg>
